<svg width="300" height="220" viewBox="0 0 300 220"
	xmlns="http://www.w3.org/2000/svg"
	xmlns:xlink="http://www.w3.org/1999/xlink">
	<title>mobile + mobile 2 + mobile 3</title>
	<defs>
		<path id="a" d="M.057.27h149.487v49.673H.057V.27z"/>
		<path id="c" d="M.08.38h209.282v69.54H.08V.38z"/>
		<path id="e" d="M.114.542H299.09v99.345H.113V.542z"/>
	</defs>
	<g fill="none" fill-rule="evenodd">
		<g id="Group-3">
			<mask id="b" fill="#fff">
				<use xlink:href="#a"/>
			</mask>
			<path d="M13.8 37.408c0 1.4-1.14 2.53-2.544 2.53-1.408 0-2.546-1.13-2.546-2.53 0-1.395 1.138-2.53 2.546-2.53 1.405 0 2.543 1.135 2.543 2.53zm-5.546 0c0 1.65 1.342 2.984 3.002 2.984 1.655 0 3-1.335 3-2.984 0-1.646-1.345-2.98-3-2.98-1.66 0-3.002 1.334-3.002 2.98zM.534 25.256v-.61h21.432v.61H.535zm1.14 4.102h1.985v15.05H1.672v-15.05zm12.957 2.59c-1.29 0-2.365.848-2.732 2.008.374.068.73.192 1.052.37h3.77v.45h-3.125c.414.366.743.825.948 1.348h2.177v.45h-2.032c.066.27.103.548.103.834 0 .176-.014.346-.04.513h1.97v.454h-2.067c-.144.505-.4.963-.736 1.346h2.803v.455h-3.286c-.477.368-1.05.62-1.683.708v3.525H10.75v-3.525c-.625-.09-1.195-.34-1.67-.708H5.78v-.455h2.815c-.34-.383-.597-.84-.74-1.346H5.78v-.453H7.76c-.024-.166-.044-.336-.044-.512 0-.286.04-.565.106-.833h-2.04v-.45h2.18c.21-.524.54-.983.954-1.348H5.782v-.452H9.56c.32-.174.673-.3 1.043-.368-.366-1.16-1.445-2.01-2.735-2.01-1.59 0-2.878 1.28-2.878 2.862v7.045h5.22v2.553H4.196v-14.12h14.108v14.12H12.29v-2.553h5.222V34.81c0-1.582-1.29-2.863-2.88-2.863zm4.21-2.59h1.99v15.05h-1.99v-15.05zm-17.167-2.51H20.83v1.977H1.672v-1.978zm20.293 18.095v.61H.535v-.61h21.432zm-.157-18.6c.49-.026.676-.513.69-.554h.002v-1.677h-1.86l-7.728-15.46H9.596L1.86 24.114H0v1.676h.002c.016.04.2.527.692.552.38.018.44.286.442.422v.033c0 .028-.002.05-.002.05h.002v17.56H0v1.68s.182.53.694.555c.38.02.44.287.442.426v.03c0 .028-.002.05-.002.05h.002V50h20.227v-2.852h.006s-.073-.478.44-.506c.51-.024.692-.556.692-.556v-1.678h-1.14v-17.56h.007s-.073-.482.44-.506zM11.754.27h-1l-.033.23-1.09 7.623h3.248L11.755.27zm-.838 36.835l-.16.337.078.032-1.42.83.08.155 1.73-.824 1.497.622.078-.164-1.203-.634.045-.02-.176-.333-.256.15-.293-.152z" id="Fill-1" fill="#007659" mask="url(#b)"/>
		</g>
		<path d="M32.93 38.083h.17v.713H29v-.713h.173c.92 0 1.31-.34 1.31-1.193v-7.417c-.266-.186-.578-.28-.998-.28-.077 0-.156 0-.25.016v-.743h3.382l6.732 6.875v-5c0-.854-.39-1.195-1.31-1.195h-.17v-.71h4.098v.71h-.172c-.92 0-1.31.34-1.31 1.194v8.502h-.98l-7.886-8.1v6.148c0 .852.39 1.193 1.31 1.193" id="Fill-4" fill="#41422D"/>
		<path d="M47.663 38.485c1.658 0 2.754-1.275 2.754-3.565 0-2.464-1.32-4.025-2.978-4.025-1.596 0-2.743 1.276-2.743 3.418 0 2.587 1.308 4.172 2.966 4.172zm-3.464-.557c-.998-.792-1.52-1.894-1.52-3.12 0-1.214.535-2.39 1.52-3.244.92-.805 2.092-1.225 3.438-1.225 1.284 0 2.442.382 3.29 1.063.984.793 1.52 1.882 1.52 3.12 0 1.252-.56 2.427-1.57 3.295-.922.792-2.03 1.175-3.376 1.175-1.297 0-2.455-.383-3.303-1.065z" id="Fill-5" fill="#41422D"/>
		<path d="M56.64 34.597c.374.05.674.087.91.087 1.32 0 2.03-.643 2.03-1.834 0-1.186-.696-1.892-1.98-1.892-.236 0-.548.036-.96.086v3.553zm1.035 3.628h.137v.57h-4.236v-.57h.136c.736 0 1.047-.272 1.047-.952v-5.24c0-.68-.312-.953-1.048-.953h-.136v-.568c1.756-.075 3.102-.137 4.05-.137 2.628 0 3.937.78 3.937 2.39 0 1.15-.723 1.93-2.118 2.192.56.383.897 1.176 1.445 2.142.424.742.748 1.138 1.545 1.225v.544c-.35.023-.648.037-.934.037-.884 0-1.482-.163-2.018-.695-.4-.407-.873-1.485-1.82-2.934h-1.02v1.995c0 .68.298.952 1.033.952z" id="Fill-6" fill="#41422D"/>
		<path d="M65.192 31.23c-.572 0-.934.062-1.146.26-.162.16-.287.607-.474 1.336l-.547-.01.236-2.49h.424l.324.186h6.855l.323-.186h.424l.237 2.49-.55.01c-.186-.73-.31-1.175-.47-1.335-.214-.198-.588-.26-1.16-.26H68.37v6.043c0 .68.312.952 1.047.952h.136v.57h-4.236v-.57h.137c.736 0 1.047-.272 1.047-.952V31.23h-1.308" id="Fill-7" fill="#41422D"/>
		<path d="M80.264 32.034c0-.682-.313-.954-1.047-.954h-.14v-.568h4.24v.568h-.137c-.737 0-1.046.272-1.046.954l.01 5.24c0 .68.312.95 1.048.95h.136v.572h-4.25v-.57h.14c.733 0 1.046-.273 1.046-.953v-2.33h-4.25v2.33c0 .68.31.952 1.046.952h.138v.57h-4.236v-.57h.136c.735 0 1.047-.272 1.047-.952v-5.24c0-.68-.312-.953-1.047-.953h-.136v-.568h4.236v.568h-.138c-.735 0-1.045.272-1.045.954v2.107h4.25v-2.106" id="Fill-8" fill="#41422D"/>
		<path d="M84.63 38.225h.14c.733 0 1.044-.272 1.044-.952v-5.24c0-.68-.31-.953-1.045-.953h-.14v-.568h7.19l.1 1.944h-.486c-.126-1.04-.348-1.164-1.31-1.164H87.67v2.946h1.438c.784 0 1.12-.26 1.12-.916v-.074h.524v2.71h-.523v-.072c0-.657-.338-.918-1.122-.918H87.67v2.192c0 .62.05.805.623.805h1.782c1.098 0 1.547-.26 1.708-1.31h.55l-.175 2.14H84.63v-.57" id="Fill-9" fill="#41422D"/>
		<path d="M98.766 34.968l-1.16-3.058-1.145 3.058h2.306zm-5.47 3.257c.722 0 1.072-.15 1.296-.754l2.242-6.018c.126-.32.213-.557.213-.743 0-.11-.025-.198-.076-.298h1.97l2.63 6.81c.26.67.535.955 1.296.99l-.024.584h-4.324l.01-.584h.262c.687 0 .96-.098.96-.556 0-.112-.024-.21-.063-.31l-.634-1.62h-2.88l-.522 1.447c-.073.223-.136.385-.136.545 0 .384.4.507 1.283.507v.57h-3.5v-.57z" id="Fill-10" fill="#41422D"/>
		<path d="M104.192 36.32c.398 1.324 1.248 2.03 2.317 2.03.86 0 1.42-.532 1.42-1.29 0-1-.922-1.372-2.38-2.19-1.22-.68-1.807-1.338-1.807-2.266 0-1.288 1.035-2.23 2.592-2.23 1.046 0 1.708.31 2.032.31.136 0 .26-.038.374-.125l.21.026.226 2.154-.51.013c-.36-1.14-1.172-1.77-2.12-1.77-.77 0-1.256.382-1.256.953 0 .26.11.52.31.717.534.52 1.36.842 2.155 1.325 1.27.768 1.87 1.462 1.87 2.526 0 1.374-1.184 2.44-2.804 2.44-.583 0-1.332-.124-2.254-.372l-.15.162-.45.024-.322-2.427.548-.01" id="Fill-11" fill="#41422D"/>
		<path d="M112.733 31.23c-.576 0-.937.062-1.148.26-.162.16-.286.607-.475 1.336l-.548-.01.238-2.49h.423l.325.186h6.852l.325-.186h.422l.238 2.49-.55.01c-.184-.73-.31-1.175-.472-1.335-.21-.198-.585-.26-1.158-.26h-1.297v6.043c0 .68.312.952 1.046.952h.14v.57h-4.238v-.57h.136c.736 0 1.048-.272 1.048-.952V31.23h-1.307" id="Fill-12" fill="#41422D"/>
		<path d="M120.49 38.225h.134c.736 0 1.048-.272 1.048-.952v-5.24c0-.68-.312-.953-1.048-.953h-.135v-.568h7.188l.1 1.944h-.486c-.126-1.04-.35-1.164-1.31-1.164h-2.454v2.946h1.436c.785 0 1.122-.26 1.122-.916v-.074h.523v2.71h-.524v-.072c0-.657-.337-.918-1.122-.918h-1.436v2.192c0 .62.05.805.623.805h1.783c1.097 0 1.546-.26 1.708-1.31h.55l-.175 2.14h-7.526v-.57" id="Fill-13" fill="#41422D"/>
		<path d="M132.356 34.597c.372.05.673.087.91.087 1.318 0 2.028-.643 2.028-1.834 0-1.186-.697-1.892-1.98-1.892-.237 0-.547.036-.958.086v3.553zm1.034 3.628h.136v.57h-4.237v-.57h.136c.734 0 1.047-.272 1.047-.952v-5.24c0-.68-.313-.953-1.047-.953h-.137v-.568c1.757-.075 3.103-.137 4.05-.137 2.63 0 3.938.78 3.938 2.39 0 1.15-.725 1.93-2.12 2.192.562.383.9 1.176 1.445 2.142.425.742.748 1.138 1.547 1.225v.544c-.35.023-.65.037-.934.037-.887 0-1.484-.163-2.02-.695-.398-.407-.873-1.485-1.818-2.934h-1.022v1.995c0 .68.298.952 1.034.952z" id="Fill-14" fill="#41422D"/>
		<path d="M142.317 38.225h.136v.57h-3.276v-.57h.136c.736 0 1.047-.272 1.047-.952v-5.93c-.21-.15-.46-.225-.797-.225-.063 0-.126 0-.2.013v-.594h2.703l5.385 5.498v-4c0-.682-.31-.954-1.047-.954h-.135v-.568h3.276v.568h-.137c-.734 0-1.048.272-1.048.954v6.797h-.785l-6.306-6.473v4.916c0 .68.312.952 1.047.952" id="Fill-15" fill="#41422D"/>
		<path d="M29.877 46.973h.4c.152.708.64 1.113 1.317 1.113.502 0 .86-.31.86-.716 0-.52-.57-.723-1.392-1.2-.785-.456-1.185-.817-1.185-1.518 0-.868.67-1.44 1.848-1.44.546 0 1.033.152 1.52.47v1.012h-.377c-.154-.657-.64-1.048-1.216-1.048-.473 0-.785.267-.785.63 0 .426.37.614 1.026.954.32.165.668.325.99.585.385.31.588.71.588 1.114 0 .954-.675 1.62-1.832 1.62-.48 0-1.063-.102-1.76-.305v-1.272" id="Fill-16" fill="#41422D"/>
		<path d="M38.722 47.4c0 .202.007.353.065.44.103.168.335.246.685.246h.044v.383h-2.853v-.384h.043c.35 0 .582-.078.685-.246.06-.087.066-.238.066-.44V43.81h-.503c-.596 0-.872.262-1.083.927h-.4l.152-1.39h4.984l.117 1.39h-.393c-.16-.674-.465-.928-1.135-.928h-.473V47.4" id="Fill-17" fill="#41422D"/>
		<path d="M44.768 46.227l-.61-1.844-.627 1.844h1.238zm-2.663 1.823c.305-.073.415-.282.538-.643l1.244-3.608c.016-.052.03-.104.03-.146 0-.102-.05-.196-.16-.305h1.302l1.454 4.136c.125.348.284.535.51.564v.42h-2.256v-.42c.313-.015.46-.115.46-.318 0-.074-.024-.167-.06-.29l-.21-.766H43.37l-.188.702c-.03.108-.05.202-.05.288 0 .246.152.384.435.384h.022v.42h-1.485v-.42z" id="Fill-18" fill="#41422D"/>
		<path d="M51.735 47.4c0 .202.006.353.065.44.102.168.335.246.684.246h.044v.383h-2.852v-.384h.043c.348 0 .58-.078.683-.246.06-.087.065-.238.065-.44V43.81h-.502c-.597 0-.873.262-1.084.927h-.4l.153-1.39h4.984l.116 1.39h-.393c-.16-.674-.466-.928-1.135-.928h-.473V47.4" id="Fill-19" fill="#41422D"/>
		<path d="M55.587 48.05c.495-.05.576-.18.576-.593v-3.095c0-.412-.08-.543-.576-.593v-.42h4.047v1.055h-.393c-.203-.463-.566-.657-1.156-.657-.62 0-.655.057-.655.36v1.42h.545c.472 0 .705-.184.77-.603h.423v1.7h-.422c-.044-.427-.313-.665-.77-.665h-.547v1.402c0 .478.188.615.66.615.656 0 1.194-.303 1.544-.882h.407l-.305 1.374h-4.148v-.42" id="Fill-20" fill="#41422D"/>
		<path d="M67.552 43.35v.42h-.028c-.532 0-.576.202-.576.787v2.205c0 .84.356 1.215 1.21 1.215.988 0 1.39-.484 1.39-1.59V44.47c0-.52-.12-.7-.65-.7h-.065v-.42h1.82v.42h-.03c-.494 0-.59.188-.59.7v1.917c0 1.453-.763 2.213-2.174 2.213-.628 0-1.166-.167-1.566-.457-.48-.346-.59-.787-.59-1.46V44.52c0-.54-.02-.72-.575-.75v-.42h2.422" id="Fill-21" fill="#41422D"/>
		<path d="M72.38 48.05c.59-.058.64-.303.64-.904v-2.972c-.217-.267-.398-.405-.625-.405h-.014v-.42H73.808c.123 0 .152.007.262.138l2.655 3.115v-2.11c0-.442-.19-.65-.647-.724v-.42h1.76v.42c-.488.08-.625.267-.625.722v3.233c0 .287.014.57.037.846h-.525l-3.23-3.767v2.343c0 .622.116.84.77.904v.42H72.38v-.42" id="Fill-22" fill="#41422D"/>
		<path d="M79.807 48.05c.495-.05.575-.18.575-.593v-3.095c0-.412-.08-.543-.575-.593v-.42H82.2v.42c-.495.05-.574.18-.574.592v3.095c0 .412.08.542.575.593v.42h-2.393v-.42" id="Fill-23" fill="#41422D"/>
		<path d="M84.643 44.29c-.138-.326-.255-.5-.533-.52v-.42h2.227v.362c-.254 0-.39.107-.39.296 0 .058.027.174.087.317l1.002 2.387c.605-1.468.953-2.3.953-2.538 0-.246-.195-.412-.575-.47v-.355h1.702v.362c-.443.036-.588.57-.945 1.468-.72 1.8-1.223 2.906-1.34 3.39h-.39l-1.8-4.28" id="Fill-24" fill="#41422D"/>
		<path d="M90.49 48.05c.494-.05.575-.18.575-.593v-3.095c0-.412-.08-.543-.576-.593v-.42h4.045v1.055h-.39c-.207-.463-.57-.657-1.158-.657-.62 0-.655.057-.655.36v1.42h.546c.472 0 .704-.184.77-.603h.423v1.7h-.422c-.044-.427-.313-.665-.77-.665h-.546v1.402c0 .478.188.615.66.615.656 0 1.195-.303 1.543-.882h.407l-.305 1.374H90.49v-.42" id="Fill-25" fill="#41422D"/>
		<path d="M98.803 45.728c.612 0 .933-.333.933-.982 0-.63-.306-.92-.97-.92-.13 0-.19.045-.19.153v1.734c.082.008.155.014.227.014zm.35 2.322v.42h-2.38v-.42c.525-.05.575-.195.575-.63v-3.058c0-.412-.08-.543-.575-.593v-.42h2.14c.632 0 1.127.035 1.55.332.37.26.56.607.56 1.034 0 .6-.38 1.056-1.056 1.214l.976 1.49c.217.333.423.543.72.63v.42h-1.324c-.11 0-.183-.022-.22-.088l-1.317-2.198h-.226v1.237c0 .435.052.58.575.63z" id="Fill-26" fill="#41422D"/>
		<path d="M103.463 46.973h.4c.154.708.642 1.113 1.317 1.113.504 0 .86-.31.86-.716 0-.52-.567-.723-1.39-1.2-.786-.456-1.187-.817-1.187-1.518 0-.868.67-1.44 1.848-1.44.548 0 1.036.152 1.522.47v1.012h-.377c-.153-.657-.64-1.048-1.216-1.048-.474 0-.785.267-.785.63 0 .426.37.614 1.025.954.32.165.668.325.99.585.384.31.588.71.588 1.114 0 .954-.677 1.62-1.834 1.62-.48 0-1.062-.102-1.76-.305v-1.272" id="Fill-27" fill="#41422D"/>
		<path d="M109.137 48.05c.495-.05.575-.18.575-.593v-3.095c0-.412-.08-.543-.575-.593v-.42h2.394v.42c-.494.05-.574.18-.574.592v3.095c0 .412.08.542.575.593v.42h-2.393v-.42" id="Fill-28" fill="#41422D"/>
		<path d="M116.68 47.4c0 .202.008.353.065.44.104.168.336.246.684.246h.044v.383h-2.854v-.384h.046c.35 0 .58-.078.682-.246.06-.087.066-.238.066-.44V43.81h-.503c-.594 0-.872.262-1.082.927h-.4l.153-1.39h4.986l.114 1.39h-.39c-.162-.674-.468-.928-1.137-.928h-.473V47.4" id="Fill-29" fill="#41422D"/>
		<path d="M121.493 48.05c.592-.007.635-.158.635-.708v-.86l-1.202-2.12c-.195-.34-.334-.557-.676-.593v-.42h2.422v.42c-.044-.008-.08-.008-.114-.008-.256 0-.395.11-.395.29 0 .13.074.244.147.382l.778 1.49c.662-1.034 1.07-1.642 1.07-1.952 0-.116-.154-.196-.437-.203v-.42h1.464v.42c-.292.006-.444.26-.693.7-.1.182-.434.838-1.14 1.888v.998c0 .52.015.67.604.694v.42h-2.46v-.42" id="Fill-30" fill="#41422D"/>
		<g>
			<g id="Group-3" transform="translate(0 50)">
				<mask id="d" fill="#fff">
					<use xlink:href="#c"/>
				</mask>
				<path d="M19.32 52.372c0 1.96-1.595 3.542-3.562 3.542-1.97 0-3.563-1.583-3.563-3.542 0-1.954 1.592-3.54 3.563-3.54 1.967 0 3.56 1.586 3.56 3.54zm-7.765 0c0 2.307 1.88 4.176 4.203 4.176 2.318 0 4.2-1.87 4.2-4.176 0-2.305-1.882-4.174-4.2-4.174-2.323 0-4.203 1.87-4.203 4.174zM.748 35.358v-.853h30.005v.853H.75zm1.594 5.744h2.78v21.07h-2.78v-21.07zm18.14 3.624c-1.804 0-3.31 1.19-3.824 2.812.523.095 1.022.27 1.472.516h5.278v.634h-4.375c.58.51 1.04 1.153 1.328 1.885h3.048v.633h-2.845c.093.375.145.764.145 1.166 0 .246-.022.483-.06.717h2.76v.633h-2.893c-.202.708-.562 1.35-1.032 1.885h3.925v.636h-4.6c-.668.517-1.472.868-2.356.992v4.936h-1.405v-4.936c-.875-.124-1.673-.475-2.34-.992H8.095v-.636h3.94c-.476-.536-.834-1.177-1.036-1.885H8.094v-.634h2.77c-.033-.235-.06-.472-.06-.718 0-.402.055-.79.147-1.166H8.095v-.633h3.055c.29-.732.755-1.374 1.333-1.885h-4.39v-.634h5.29c.45-.243.944-.418 1.462-.515-.513-1.625-2.024-2.814-3.83-2.814-2.226 0-4.03 1.794-4.03 4.007v9.864h7.308v3.575H5.876v-19.77h19.75v19.77h-8.42v-3.575h7.31v-9.864c0-2.213-1.804-4.007-4.033-4.007zm5.896-3.624h2.783v21.07H26.38v-21.07zM2.342 37.586h26.82v2.768H2.34v-2.768zm28.41 25.335l.002.853H.748v-.852h30.005zm-.22-26.042c.69-.034.948-.716.968-.774h.003v-2.346h-2.605L18.08 12.115h-4.645L2.605 33.758H0v2.346h.003c.022.058.28.74.97.774.53.027.613.402.618.592v.046c0 .04-.003.07-.003.07h.004v24.586H0v2.348s.255.745.972.778c.53.03.614.403.62.597v.04c0 .042-.005.072-.005.072h.004V70H29.91v-3.993h.01s-.102-.67.614-.71c.717-.032.97-.777.97-.777v-2.348H29.91V37.586h.01s-.102-.674.614-.708zM16.457.378H15.06l-.05.32-1.526 10.674h4.548L16.457.38zm-1.174 51.57l-.223.47.11.045-1.99 1.162.114.218 2.423-1.153 2.094.872.11-.23-1.685-.887.064-.03-.247-.466-.36.21-.41-.213z" id="Fill-1" fill="#007659" mask="url(#d)"/>
			</g>
			<path d="M46.1 103.316h.24v1h-5.738v-1h.24c1.288 0 1.833-.477 1.833-1.67V91.26c-.37-.26-.808-.393-1.395-.393-.11 0-.22 0-.35.023v-1.04h4.734l9.425 9.625v-7c0-1.195-.546-1.672-1.834-1.672h-.24v-.996h5.74v.996h-.242c-1.286 0-1.833.477-1.833 1.67v11.903h-1.373l-11.04-11.34v8.605c0 1.194.547 1.67 1.833 1.67" id="Fill-4" fill="#41422D"/>
			<path d="M66.728 103.88c2.32 0 3.856-1.785 3.856-4.992 0-3.45-1.85-5.635-4.17-5.635-2.232 0-3.838 1.786-3.838 4.785 0 3.622 1.832 5.84 4.152 5.84zm-4.85-.78c-1.395-1.11-2.128-2.652-2.128-4.368 0-1.7.75-3.348 2.128-4.542 1.29-1.127 2.93-1.716 4.816-1.716 1.797 0 3.418.536 4.605 1.49 1.377 1.11 2.127 2.635 2.127 4.368 0 1.752-.784 3.398-2.198 4.613-1.292 1.11-2.844 1.646-4.728 1.646-1.815 0-3.437-.535-4.624-1.49z" id="Fill-5" fill="#41422D"/>
			<path d="M79.298 98.436c.522.07.942.122 1.273.122 1.85 0 2.844-.9 2.844-2.568 0-1.66-.977-2.65-2.774-2.65-.33 0-.767.052-1.342.122v4.974zm1.447 5.08h.19v.8h-5.93v-.8h.192c1.03 0 1.465-.382 1.465-1.334v-7.334c0-.955-.435-1.336-1.465-1.336h-.19v-.795c2.458-.105 4.342-.193 5.67-.193 3.68 0 5.51 1.093 5.51 3.346 0 1.61-1.01 2.705-2.965 3.07.786.535 1.256 1.646 2.023 3 .594 1.038 1.048 1.593 2.164 1.714v.762c-.49.035-.91.053-1.31.053-1.237 0-2.075-.228-2.826-.973-.558-.57-1.22-2.08-2.546-4.107h-1.43v2.792c0 .952.418 1.334 1.447 1.334z" id="Fill-6" fill="#41422D"/>
			<path d="M91.27 93.72c-.803 0-1.31.088-1.605.367-.228.224-.402.85-.664 1.87l-.765-.016.33-3.483h.593l.454.26h9.596l.453-.26h.594l.332 3.484-.768.017c-.262-1.02-.436-1.646-.662-1.87-.298-.28-.822-.366-1.624-.366H95.72v8.462c0 .952.435 1.334 1.463 1.334h.192v.8h-5.93v-.8h.19c1.03 0 1.467-.382 1.467-1.334v-8.46H91.27" id="Fill-7" fill="#41422D"/>
			<path d="M112.37 94.848c0-.955-.44-1.336-1.466-1.336h-.195v-.795h5.933v.795h-.19c-1.033 0-1.466.38-1.466 1.336l.016 7.334c0 .952.436 1.334 1.466 1.334h.19v.8h-5.95v-.8h.194c1.027 0 1.466-.382 1.466-1.334v-3.26h-5.95v3.26c0 .952.435 1.334 1.464 1.334h.193v.8h-5.93v-.8h.19c1.03 0 1.465-.382 1.465-1.334v-7.334c0-.955-.435-1.336-1.464-1.336h-.192v-.795h5.93v.795h-.192c-1.03 0-1.463.38-1.463 1.336v2.95h5.95v-2.95" id="Fill-8" fill="#41422D"/>
			<path d="M118.484 103.516h.193c1.027 0 1.463-.382 1.463-1.334v-7.334c0-.955-.436-1.336-1.463-1.336h-.193v-.795h10.064l.14 2.72h-.68c-.176-1.456-.487-1.63-1.833-1.63h-3.437v4.126h2.013c1.098 0 1.57-.363 1.57-1.283v-.103h.733v3.795h-.733v-.102c0-.92-.472-1.285-1.57-1.285h-2.012v3.07c0 .866.07 1.126.872 1.126h2.495c1.538 0 2.165-.363 2.39-1.835h.77l-.244 3h-10.536v-.8" id="Fill-9" fill="#41422D"/>
			<path d="M138.273 98.955l-1.623-4.28-1.604 4.28h3.227zm-7.658 4.56c1.01 0 1.5-.208 1.814-1.056l3.138-8.427c.176-.45.298-.78.298-1.04 0-.154-.036-.276-.106-.416h2.756l3.682 9.535c.365.936.75 1.336 1.814 1.385l-.033.818h-6.055l.016-.818h.366c.96 0 1.345-.137 1.345-.78 0-.155-.033-.294-.088-.432l-.888-2.27h-4.03l-.733 2.027c-.103.313-.19.54-.19.763 0 .538.558.71 1.795.71v.8h-4.9v-.8z" id="Fill-10" fill="#41422D"/>
			<path d="M145.87 100.848c.556 1.854 1.745 2.842 3.243 2.842 1.204 0 1.99-.745 1.99-1.804 0-1.403-1.292-1.923-3.332-3.068-1.71-.954-2.53-1.873-2.53-3.173 0-1.803 1.45-3.12 3.63-3.12 1.463 0 2.39.434 2.844.434.19 0 .366-.055.523-.177l.295.037.315 3.015-.715.02c-.505-1.597-1.64-2.48-2.967-2.48-1.08 0-1.76.536-1.76 1.335 0 .365.156.728.436 1.004.748.73 1.902 1.18 3.017 1.856 1.778 1.075 2.617 2.045 2.617 3.535 0 1.925-1.656 3.416-3.925 3.416-.818 0-1.867-.172-3.157-.52l-.21.228-.63.033-.45-3.396.766-.016" id="Fill-11" fill="#41422D"/>
			<path d="M157.826 93.72c-.806 0-1.312.088-1.607.367-.227.224-.4.85-.666 1.87l-.767-.016.333-3.483h.592l.455.26h9.593l.455-.26h.59l.334 3.484-.77.017c-.26-1.02-.435-1.646-.66-1.87-.296-.28-.82-.366-1.623-.366h-1.815v8.462c0 .952.435 1.334 1.464 1.334h.194v.8h-5.932v-.8h.19c1.03 0 1.468-.382 1.468-1.334v-8.46h-1.83" id="Fill-12" fill="#41422D"/>
			<path d="M168.684 103.516h.19c1.03 0 1.467-.382 1.467-1.334v-7.334c0-.955-.435-1.336-1.467-1.336h-.19v-.795h10.066l.138 2.72h-.68c-.176-1.456-.488-1.63-1.832-1.63h-3.437v4.126h2.01c1.1 0 1.57-.363 1.57-1.283v-.103h.733v3.795h-.732v-.102c0-.92-.47-1.285-1.57-1.285h-2.01v3.07c0 .866.068 1.126.87 1.126h2.496c1.536 0 2.165-.363 2.39-1.835h.77l-.246 3h-10.536v-.8" id="Fill-13" fill="#41422D"/>
			<path d="M185.298 98.436c.52.07.943.122 1.272.122 1.848 0 2.842-.9 2.842-2.568 0-1.66-.976-2.65-2.773-2.65-.333 0-.766.052-1.342.122v4.974zm1.448 5.08h.19v.8h-5.932v-.8h.193c1.027 0 1.466-.382 1.466-1.334v-7.334c0-.955-.44-1.336-1.466-1.336h-.193v-.795c2.462-.105 4.346-.193 5.67-.193 3.683 0 5.516 1.093 5.516 3.346 0 1.61-1.016 2.705-2.967 3.07.784.535 1.256 1.646 2.022 3 .594 1.038 1.046 1.593 2.165 1.714v.762c-.49.035-.91.053-1.308.053-1.24 0-2.077-.228-2.827-.973-.558-.57-1.223-2.08-2.546-4.107h-1.432v2.792c0 .952.418 1.334 1.448 1.334z" id="Fill-14" fill="#41422D"/>
			<path d="M199.243 103.516h.192v.8h-4.587v-.8h.19c1.03 0 1.466-.382 1.466-1.334v-8.304c-.295-.21-.646-.313-1.116-.313-.088 0-.176 0-.278.02v-.835h3.783l7.538 7.698v-5.6c0-.955-.435-1.336-1.466-1.336h-.19v-.795h4.588v.795h-.193c-1.028 0-1.467.38-1.467 1.336v9.516h-1.098l-8.83-9.065v6.882c0 .952.44 1.334 1.468 1.334" id="Fill-15" fill="#41422D"/>
			<path d="M41.827 115.762h.56c.214.992.897 1.558 1.845 1.558.703 0 1.202-.434 1.202-1.002 0-.728-.796-1.012-1.947-1.68-1.1-.638-1.66-1.144-1.66-2.125 0-1.215.937-2.016 2.588-2.016.764 0 1.446.213 2.13.658v1.417h-.53c-.215-.92-.897-1.467-1.702-1.467-.662 0-1.1.373-1.1.882 0 .596.52.858 1.437 1.335.448.23.936.455 1.385.82.54.434.824.992.824 1.56 0 1.336-.947 2.267-2.567 2.267-.673 0-1.488-.143-2.466-.427v-1.78" id="Fill-16" fill="#41422D"/>
			<path d="M54.21 116.36c0 .283.01.494.092.615.144.236.47.345.96.345h.06v.536h-3.994v-.536h.06c.49 0 .816-.11.96-.345.08-.12.09-.332.09-.616v-5.023h-.704c-.834 0-1.22.366-1.516 1.297h-.56l.213-1.945h6.98l.162 1.944h-.55c-.223-.942-.65-1.297-1.59-1.297h-.66v5.022" id="Fill-17" fill="#41422D"/>
			<path d="M62.676 114.718l-.856-2.582-.876 2.582h1.732zm-3.728 2.552c.426-.102.58-.395.752-.9l1.742-5.05c.022-.073.04-.145.04-.205 0-.142-.07-.274-.223-.426h1.822l2.038 5.79c.174.488.397.75.714.79v.586h-3.158v-.586c.437-.02.642-.16.642-.445 0-.103-.032-.234-.08-.406l-.298-1.073h-2.22l-.265.983c-.04.15-.072.282-.072.402 0 .345.214.538.61.538h.032v.586h-2.077v-.586z" id="Fill-18" fill="#41422D"/>
			<path d="M72.43 116.36c0 .283.008.494.09.615.143.236.47.345.957.345h.062v.536h-3.994v-.536h.06c.49 0 .816-.11.958-.345.082-.12.092-.332.092-.616v-5.023h-.703c-.836 0-1.223.366-1.518 1.297h-.56l.214-1.945h6.977l.164 1.944h-.55c-.224-.942-.652-1.297-1.59-1.297h-.66v5.022" id="Fill-19" fill="#41422D"/>
			<path d="M77.822 117.27c.693-.07.806-.254.806-.83v-4.333c0-.577-.113-.76-.806-.83v-.588h5.665v1.477h-.55c-.285-.648-.794-.92-1.62-.92-.866 0-.916.08-.916.506v1.985h.765c.66 0 .988-.256 1.08-.842h.59v2.38h-.59c-.062-.6-.44-.93-1.08-.93H80.4v1.96c0 .67.265.862.927.862.917 0 1.67-.425 2.16-1.235h.57l-.428 1.923H77.82v-.586" id="Fill-20" fill="#41422D"/>
			<path d="M94.573 110.69v.586h-.04c-.744 0-.805.284-.805 1.103v3.087c0 1.176.498 1.7 1.692 1.7 1.385 0 1.946-.676 1.946-2.225v-2.684c0-.728-.165-.982-.908-.982h-.092v-.587h2.548v.586h-.04c-.694 0-.827.265-.827.982v2.684c0 2.033-1.07 3.098-3.045 3.098-.877 0-1.63-.234-2.19-.64-.674-.484-.827-1.102-.827-2.044v-3.027c0-.76-.03-1.01-.804-1.054v-.587h3.393" id="Fill-21" fill="#41422D"/>
			<path d="M101.333 117.27c.825-.08.896-.424.896-1.265v-4.162c-.306-.374-.56-.567-.877-.567h-.02v-.587h1.996c.172 0 .213.01.366.193l3.72 4.36v-2.955c0-.617-.265-.91-.907-1.012v-.587h2.463v.586c-.683.113-.875.376-.875 1.012v4.526c0 .403.02.798.052 1.185h-.735l-4.523-5.276v3.28c0 .87.164 1.175 1.08 1.266v.586h-2.64v-.586" id="Fill-22" fill="#41422D"/>
			<path d="M111.73 117.27c.693-.07.805-.254.805-.83v-4.333c0-.577-.112-.76-.806-.83v-.588h3.35v.586c-.692.07-.804.254-.804.83v4.333c0 .576.112.76.805.83v.586h-3.35v-.586" id="Fill-23" fill="#41422D"/>
			<path d="M118.5 112.004c-.193-.454-.356-.697-.746-.728v-.587h3.118v.507c-.356 0-.547.15-.547.415 0 .08.038.243.122.444l1.404 3.34c.847-2.054 1.335-3.22 1.335-3.553 0-.343-.273-.576-.804-.658v-.496h2.384v.507c-.62.05-.823.798-1.324 2.055-1.007 2.52-1.712 4.068-1.875 4.747h-.548l-2.517-5.996" id="Fill-24" fill="#41422D"/>
			<path d="M126.684 117.27c.693-.07.807-.254.807-.83v-4.333c0-.577-.113-.76-.806-.83v-.588h5.665v1.477h-.548c-.29-.648-.798-.92-1.62-.92-.867 0-.918.08-.918.506v1.985h.765c.66 0 .985-.256 1.078-.842h.59v2.38h-.59c-.063-.6-.44-.93-1.08-.93h-.764v1.96c0 .67.263.862.925.862.918 0 1.67-.425 2.16-1.235h.57l-.43 1.923h-5.806v-.586" id="Fill-25" fill="#41422D"/>
			<path d="M138.325 114.02c.856 0 1.305-.467 1.305-1.375 0-.883-.428-1.288-1.357-1.288-.182 0-.266.062-.266.214V114c.115.01.217.02.318.02zm.488 3.25v.586h-3.33v-.586c.734-.07.804-.273.804-.88v-4.283c0-.577-.11-.76-.805-.83v-.588h2.996c.885 0 1.577.05 2.17.465.52.364.784.85.784 1.447 0 .842-.53 1.478-1.478 1.7l1.367 2.087c.304.464.592.758 1.01.88v.586h-1.856c-.153 0-.254-.03-.307-.12l-1.842-3.078h-.318v1.73c0 .61.073.81.806.882z" id="Fill-26" fill="#41422D"/>
			<path d="M144.848 115.762h.56c.216.992.9 1.558 1.845 1.558.705 0 1.204-.434 1.204-1.002 0-.728-.795-1.012-1.947-1.68-1.1-.638-1.662-1.144-1.662-2.125 0-1.215.94-2.016 2.588-2.016.766 0 1.45.213 2.13.658v1.417h-.528c-.216-.92-.898-1.467-1.703-1.467-.662 0-1.098.373-1.098.882 0 .596.52.858 1.436 1.335.446.23.934.455 1.383.82.54.434.826.992.826 1.56 0 1.336-.948 2.267-2.568 2.267-.672 0-1.488-.143-2.466-.427v-1.78" id="Fill-27" fill="#41422D"/>
			<path d="M152.792 117.27c.693-.07.804-.254.804-.83v-4.333c0-.577-.11-.76-.804-.83v-.588h3.35v.586c-.69.07-.803.254-.803.83v4.333c0 .576.11.76.803.83v.586h-3.35v-.586" id="Fill-28" fill="#41422D"/>
			<path d="M163.352 116.36c0 .283.01.494.09.615.147.236.47.345.96.345h.06v.536h-3.994v-.536h.065c.488 0 .812-.11.954-.345.084-.12.092-.332.092-.616v-5.023h-.704c-.833 0-1.223.366-1.517 1.297h-.56l.214-1.945h6.978l.16 1.944h-.547c-.226-.942-.654-1.297-1.59-1.297h-.663v5.022" id="Fill-29" fill="#41422D"/>
			<path d="M170.09 117.27c.83-.01.89-.222.89-.99v-1.206l-1.684-2.967c-.273-.477-.467-.78-.946-.83v-.588h3.39v.586c-.06-.01-.11-.01-.16-.01-.357 0-.552.153-.552.405 0 .185.103.345.206.538l1.09 2.085c.926-1.448 1.498-2.298 1.498-2.733 0-.162-.216-.273-.613-.284v-.587h2.047v.586c-.408.01-.62.365-.97.982-.14.255-.61 1.174-1.598 2.644v1.396c0 .73.02.94.846.972v.586h-3.445v-.586" id="Fill-30" fill="#41422D"/>
		</g>
		<g>
			<g transform="translate(0 120)">
				<mask id="f" fill="#fff">
					<use xlink:href="#e"/>
				</mask>
				<path d="M27.598 74.817c0 2.798-2.276 5.06-5.087 5.06-2.814 0-5.09-2.262-5.09-5.06 0-2.79 2.276-5.06 5.09-5.06 2.812 0 5.088 2.27 5.088 5.06zm-11.09 0c0 3.296 2.684 5.966 6.003 5.966 3.313 0 6-2.67 6-5.966 0-3.292-2.687-5.962-6-5.962-3.318 0-6.002 2.67-6.002 5.962zM1.068 50.51v-1.218h42.865l.002 1.22H1.07zm2.278 8.207h3.972v30.1H3.346v-30.1zm25.915 5.177c-2.577 0-4.73 1.698-5.463 4.017.748.137 1.46.386 2.104.74h7.54v.905h-6.25c.828.73 1.487 1.647 1.897 2.692h4.354v.904h-4.065c.133.537.207 1.093.207 1.667 0 .35-.03.69-.083 1.025h3.94v.905h-4.133c-.29 1.01-.803 1.927-1.473 2.693h5.607v.91h-6.57c-.956.737-2.105 1.24-3.367 1.416v7.05h-2.007v-7.05c-1.25-.177-2.39-.68-3.342-1.417h-6.59v-.91h5.63c-.683-.766-1.193-1.682-1.482-2.693h-4.15v-.905h3.958c-.047-.334-.087-.674-.087-1.025 0-.574.08-1.13.21-1.666h-4.08v-.903h4.364c.415-1.045 1.08-1.962 1.906-2.692h-6.27v-.906h7.555c.644-.348 1.348-.6 2.09-.737-.734-2.32-2.893-4.02-5.47-4.02-3.182 0-5.758 2.564-5.758 5.726v14.09h10.44v5.107H8.393V60.575H36.61v28.242H24.58V83.71h10.444V69.62c0-3.163-2.578-5.726-5.763-5.726zm8.422-5.177h3.976v30.1h-3.976v-30.1zM3.346 53.694h38.312v3.955H3.346v-3.956zm40.587 36.193l.002 1.217H1.07v-1.217h42.863zm-.315-37.204c.983-.05 1.354-1.023 1.382-1.106h.004v-3.35h-3.722l-15.454-30.92h-6.636l-15.47 30.92H0v3.35h.004c.032.083.4 1.057 1.384 1.106.76.038.877.574.885.845v.066c0 .057-.006.1-.006.1h.006v35.123H0v3.355s.365 1.064 1.388 1.11c.76.043.877.576.885.854v.058c0 .06-.006.102-.006.102h.006V100h40.452v-5.704h.014s-.146-.956.878-1.013c1.023-.047 1.386-1.11 1.386-1.11v-3.356h-2.28V53.694h.015s-.146-.962.878-1.01zM23.51.543h-1.997l-.07.455-2.18 15.247h6.497L23.51.542zm-1.676 73.666l-.32.675.156.062-2.842 1.66.163.312 3.463-1.648 2.992 1.245.156-.328-2.407-1.27.09-.043-.35-.664-.513.302-.586-.306z" fill="#007659" mask="url(#f)"/>
			</g>
			<path d="M65.858 196.166h.343v1.426h-8.197v-1.426h.343c1.84 0 2.62-.68 2.62-2.387v-14.835c-.53-.37-1.156-.56-1.995-.56-.155 0-.312 0-.498.034v-1.486h6.763l13.464 13.75V180.68c0-1.705-.78-2.386-2.62-2.386h-.34v-1.422h8.195v1.422h-.343c-1.838 0-2.62.68-2.62 2.387v17.005H79.01l-15.77-16.2v12.294c0 1.705.78 2.386 2.618 2.386M95.326 196.97c3.315 0 5.508-2.55 5.508-7.13 0-4.93-2.64-8.05-5.956-8.05-3.19 0-5.484 2.552-5.484 6.836 0 5.174 2.617 8.344 5.932 8.344zm-6.93-1.113c-1.992-1.585-3.038-3.79-3.038-6.24 0-2.428 1.072-4.783 3.04-6.49 1.843-1.608 4.186-2.45 6.88-2.45 2.566 0 4.882.766 6.578 2.13 1.97 1.585 3.04 3.763 3.04 6.238 0 2.504-1.12 4.855-3.14 6.59-1.845 1.586-4.062 2.352-6.753 2.352-2.594 0-4.91-.766-6.606-2.13zM113.282 189.194c.746.102 1.346.174 1.82.174 2.64 0 4.06-1.287 4.06-3.668 0-2.372-1.395-3.785-3.962-3.785-.473 0-1.096.074-1.918.174v7.104zm2.068 7.257h.273v1.142h-8.472v-1.14h.275c1.47 0 2.092-.546 2.092-1.907v-10.477c0-1.364-.62-1.908-2.092-1.908h-.274v-1.135c3.514-.15 6.206-.276 8.1-.276 5.26 0 7.875 1.56 7.875 4.778 0 2.302-1.445 3.864-4.236 4.385 1.12.766 1.794 2.353 2.89 4.285.848 1.485 1.495 2.277 3.09 2.45v1.09c-.698.05-1.297.075-1.868.075-1.77 0-2.966-.324-4.04-1.388-.796-.816-1.744-2.97-3.637-5.868h-2.043v3.988c0 1.36.598 1.906 2.068 1.906zM130.384 182.458c-1.145 0-1.868.125-2.292.523-.324.322-.573 1.214-.947 2.673l-1.096-.023.472-4.977h.847l.646.372h13.71l.647-.372h.847l.474 4.977-1.097.023c-.374-1.46-.623-2.35-.946-2.672-.424-.397-1.172-.522-2.32-.522h-2.59v12.087c0 1.36.624 1.906 2.094 1.906h.273v1.142h-8.472v-1.14h.273c1.472 0 2.095-.546 2.095-1.907v-12.087h-2.62M160.528 184.068c0-1.364-.626-1.908-2.094-1.908h-.28v-1.135h8.48v1.135h-.275c-1.474 0-2.093.544-2.093 1.908l.023 10.477c0 1.36.623 1.906 2.094 1.906h.272v1.142h-8.5v-1.14h.278c1.468 0 2.094-.546 2.094-1.907v-4.658h-8.498v4.658c0 1.36.62 1.906 2.09 1.906h.276v1.142h-8.473v-1.14h.274c1.47 0 2.092-.546 2.092-1.907v-10.477c0-1.364-.624-1.908-2.093-1.908h-.274v-1.135h8.473v1.135h-.276c-1.47 0-2.09.544-2.09 1.908v4.213h8.498v-4.212M169.263 196.45h.275c1.468 0 2.09-.544 2.09-1.905v-10.477c0-1.364-.622-1.908-2.09-1.908h-.275v-1.135h14.377l.2 3.886h-.97c-.254-2.08-.698-2.327-2.62-2.327h-4.91v5.892h2.875c1.57 0 2.243-.518 2.243-1.832v-.147h1.046v5.42h-1.046v-.144c0-1.314-.674-1.836-2.243-1.836h-2.874v4.385c0 1.238.1 1.61 1.246 1.61h3.564c2.197 0 3.093-.52 3.416-2.622h1.097l-.347 4.284h-15.053v-1.14M197.533 189.936l-2.318-6.115-2.292 6.116h4.61zm-10.94 6.515c1.442 0 2.143-.297 2.59-1.508l4.486-12.038c.25-.642.424-1.113.424-1.485 0-.222-.05-.395-.152-.595h3.938l5.26 13.62c.522 1.338 1.07 1.91 2.592 1.98l-.048 1.167h-8.65l.024-1.167h.522c1.373 0 1.922-.197 1.922-1.114 0-.22-.05-.42-.127-.618l-1.27-3.243h-5.758l-1.046 2.895c-.147.447-.272.77-.272 1.09 0 .77.797 1.016 2.565 1.016v1.142h-7v-1.14zM208.384 192.64c.796 2.65 2.495 4.06 4.635 4.06 1.72 0 2.84-1.064 2.84-2.577 0-2.004-1.844-2.748-4.76-4.383-2.442-1.363-3.614-2.676-3.614-4.532 0-2.576 2.07-4.46 5.184-4.46 2.092 0 3.415.622 4.065.622.27 0 .522-.078.746-.25l.423.052.45 4.307-1.022.026c-.72-2.28-2.342-3.542-4.237-3.542-1.542 0-2.514.766-2.514 1.908 0 .52.22 1.04.622 1.434 1.067 1.04 2.715 1.685 4.308 2.65 2.54 1.536 3.74 2.923 3.74 5.052 0 2.75-2.367 4.88-5.608 4.88-1.168 0-2.666-.248-4.51-.745l-.3.325-.898.047-.645-4.853 1.094-.022M225.465 182.458c-1.15 0-1.874.125-2.295.523-.323.322-.572 1.214-.95 2.673l-1.095-.023.474-4.977h.846l.65.372H236.8l.65-.372h.845l.475 4.977-1.098.023c-.37-1.46-.623-2.35-.945-2.672-.422-.397-1.172-.522-2.317-.522h-2.594v12.087c0 1.36.623 1.906 2.093 1.906h.276v1.142h-8.474v-1.14h.272c1.47 0 2.096-.546 2.096-1.907v-12.087h-2.615M240.978 196.45h.27c1.473 0 2.096-.544 2.096-1.905v-10.477c0-1.364-.623-1.908-2.097-1.908h-.27v-1.135h14.378l.2 3.886h-.97c-.253-2.08-.7-2.327-2.62-2.327h-4.91v5.892h2.873c1.57 0 2.245-.518 2.245-1.832v-.147h1.046v5.42h-1.047v-.144c0-1.314-.674-1.836-2.245-1.836h-2.872v4.385c0 1.238.098 1.61 1.245 1.61h3.565c2.195 0 3.093-.52 3.416-2.622h1.098l-.35 4.284h-15.05v-1.14M264.712 189.194c.744.102 1.346.174 1.817.174 2.638 0 4.06-1.287 4.06-3.668 0-2.372-1.395-3.785-3.962-3.785-.475 0-1.094.074-1.916.174v7.104zm2.068 7.257h.27v1.142h-8.473v-1.14h.276c1.467 0 2.094-.546 2.094-1.907v-10.477c0-1.364-.627-1.908-2.094-1.908h-.276v-1.135c3.517-.15 6.21-.276 8.1-.276 5.262 0 7.88 1.56 7.88 4.778 0 2.302-1.45 3.864-4.238 4.385 1.12.766 1.793 2.353 2.887 4.285.85 1.485 1.494 2.277 3.093 2.45v1.09c-.7.05-1.3.075-1.868.075-1.774 0-2.968-.324-4.04-1.388-.796-.816-1.746-2.97-3.637-5.868h-2.043v3.988c0 1.36.596 1.906 2.068 1.906zM284.634 196.45h.273v1.142h-6.553v-1.14h.272c1.47 0 2.094-.546 2.094-1.907v-11.862c-.42-.3-.923-.447-1.595-.447-.125 0-.25 0-.397.026v-1.19h5.404l10.77 10.996v-8c0-1.364-.623-1.908-2.096-1.908h-.27v-1.135h6.553v1.135h-.277c-1.467 0-2.094.544-2.094 1.908v13.594h-1.57l-12.613-12.95v9.833c0 1.36.627 1.906 2.097 1.906M59.753 213.945h.8c.305 1.417 1.28 2.227 2.635 2.227 1.004 0 1.718-.62 1.718-1.432 0-1.04-1.137-1.446-2.78-2.4-1.572-.912-2.373-1.634-2.373-3.036 0-1.736 1.34-2.88 3.697-2.88 1.092 0 2.066.304 3.042.94v2.025h-.756c-.308-1.316-1.282-2.098-2.432-2.098-.946 0-1.57.534-1.57 1.26 0 .852.742 1.227 2.052 1.908.64.33 1.337.65 1.98 1.17.77.62 1.176 1.42 1.176 2.228 0 1.91-1.352 3.24-3.667 3.24-.96 0-2.124-.202-3.522-.607v-2.545M77.444 214.798c0 .406.015.708.13.88.206.337.67.494 1.37.494h.087v.766h-5.705v-.766h.088c.698 0 1.164-.157 1.37-.493.114-.174.13-.476.13-.882v-7.173h-1.007c-1.192 0-1.745.522-2.166 1.852h-.8l.304-2.78h9.97l.232 2.78h-.786c-.32-1.345-.93-1.852-2.27-1.852h-.946v7.172M89.537 212.455l-1.223-3.69-1.25 3.69h2.473zM84.21 216.1c.61-.145.83-.564 1.075-1.287l2.49-7.215c.03-.102.06-.206.06-.29 0-.204-.104-.393-.322-.61h2.605l2.91 8.274c.25.696.568 1.07 1.02 1.128v.838h-4.51v-.838c.623-.03.916-.23.916-.636 0-.147-.046-.334-.116-.58l-.423-1.53h-3.173l-.378 1.403c-.06.215-.103.403-.103.575 0 .493.307.768.875.768h.043v.838H84.21v-.838zM103.47 214.798c0 .406.013.708.13.88.204.337.67.494 1.368.494h.087v.766H99.35v-.766h.09c.695 0 1.163-.157 1.366-.493.117-.174.13-.476.13-.882v-7.173h-1.004c-1.194 0-1.747.522-2.168 1.852h-.8l.306-2.78h9.97l.232 2.78h-.786c-.32-1.345-.932-1.852-2.27-1.852h-.946v7.172M111.175 216.1c.99-.102 1.15-.362 1.15-1.187v-6.188c0-.825-.16-1.087-1.15-1.187v-.84h8.092v2.11h-.786c-.405-.923-1.133-1.312-2.312-1.312-1.238 0-1.31.113-1.31.723v2.835h1.092c.944 0 1.41-.366 1.542-1.204h.845v3.4h-.845c-.088-.854-.627-1.33-1.542-1.33h-1.092v2.805c0 .954.378 1.23 1.324 1.23 1.31 0 2.386-.608 3.085-1.764h.815l-.612 2.748h-8.295v-.838M135.104 206.698v.84h-.057c-1.063 0-1.15.405-1.15 1.575v4.412c0 1.68.712 2.43 2.417 2.43 1.978 0 2.78-.968 2.78-3.18v-3.835c0-1.04-.236-1.402-1.297-1.402h-.13v-.84h3.64v.84h-.06c-.99 0-1.18.377-1.18 1.402v3.834c0 2.905-1.528 4.426-4.35 4.426-1.252 0-2.33-.334-3.128-.913-.964-.693-1.182-1.576-1.182-2.92v-4.325c0-1.084-.042-1.444-1.15-1.504v-.84h4.846M144.76 216.1c1.18-.115 1.28-.606 1.28-1.808v-5.945c-.434-.534-.796-.81-1.25-.81h-.03v-.84H147.614c.247 0 .306.016.524.278l5.313 6.23v-4.222c0-.88-.378-1.3-1.295-1.445v-.84h3.52v.84c-.976.16-1.25.536-1.25 1.445v6.466c0 .575.03 1.14.075 1.692h-1.05l-6.46-7.536v4.686c0 1.244.232 1.678 1.54 1.808v.838h-3.77v-.838M159.613 216.1c.99-.102 1.15-.362 1.15-1.187v-6.188c0-.825-.16-1.087-1.15-1.187v-.84h4.79v.84c-.992.1-1.152.362-1.152 1.187v6.188c0 .825.16 1.085 1.152 1.187v.838h-4.79v-.838M169.285 208.577c-.275-.65-.508-.996-1.065-1.04v-.84h4.455v.728c-.51 0-.783.213-.783.592 0 .115.055.347.175.634l2.005 4.775c1.21-2.936 1.906-4.6 1.906-5.078 0-.49-.39-.822-1.148-.94v-.71h3.404v.728c-.887.07-1.175 1.14-1.89 2.935-1.44 3.598-2.447 5.812-2.68 6.782h-.782l-3.597-8.565M180.978 216.1c.99-.102 1.152-.362 1.152-1.187v-6.188c0-.825-.163-1.087-1.152-1.187v-.84h8.092v2.11h-.782c-.412-.923-1.14-1.312-2.315-1.312-1.238 0-1.31.113-1.31.723v2.835h1.092c.946 0 1.41-.366 1.542-1.204h.845v3.4h-.845c-.09-.854-.627-1.33-1.542-1.33h-1.092v2.805c0 .954.376 1.23 1.322 1.23 1.312 0 2.388-.608 3.085-1.764h.815l-.612 2.748h-8.295v-.838M197.607 211.457c1.223 0 1.865-.666 1.865-1.965 0-1.26-.612-1.84-1.94-1.84-.26 0-.38.09-.38.306v3.47c.164.015.31.03.455.03zm.697 4.643v.838h-4.758v-.838c1.05-.102 1.15-.39 1.15-1.258v-6.117c0-.825-.16-1.087-1.15-1.187v-.84h4.28c1.264 0 2.253.072 3.1.666.74.52 1.12 1.213 1.12 2.068 0 1.202-.757 2.11-2.11 2.428l1.95 2.982c.434.664.846 1.084 1.442 1.258v.838h-2.65c-.22 0-.363-.042-.44-.174l-2.63-4.396h-.455v2.474c0 .867.105 1.156 1.15 1.258zM206.926 213.945h.8c.31 1.417 1.285 2.227 2.635 2.227 1.01 0 1.72-.62 1.72-1.432 0-1.04-1.134-1.446-2.78-2.4-1.573-.912-2.374-1.634-2.374-3.036 0-1.736 1.342-2.88 3.697-2.88 1.093 0 2.07.304 3.042.94v2.025h-.754c-.307-1.316-1.28-2.098-2.432-2.098-.945 0-1.568.534-1.568 1.26 0 .852.743 1.227 2.05 1.908.64.33 1.336.65 1.977 1.17.77.62 1.18 1.42 1.18 2.228 0 1.91-1.354 3.24-3.67 3.24-.958 0-2.124-.202-3.52-.607v-2.545M218.275 216.1c.99-.102 1.148-.362 1.148-1.187v-6.188c0-.825-.16-1.087-1.148-1.187v-.84h4.786v.84c-.988.1-1.147.362-1.147 1.187v6.188c0 .825.16 1.085 1.148 1.187v.838h-4.785v-.838M233.36 214.798c0 .406.015.708.13.88.208.337.67.494 1.368.494h.09v.766h-5.708v-.766h.093c.697 0 1.16-.157 1.363-.493.12-.174.13-.476.13-.882v-7.173h-1.003c-1.19 0-1.747.522-2.167 1.852h-.8l.307-2.78h9.968l.23 2.78h-.782c-.322-1.345-.934-1.852-2.272-1.852h-.946v7.172M242.987 216.1c1.183-.013 1.268-.317 1.268-1.415v-1.723l-2.404-4.237c-.388-.682-.665-1.116-1.35-1.187v-.84h4.845v.84c-.09-.013-.16-.013-.23-.013-.51 0-.79.217-.79.577 0 .262.148.49.295.766l1.557 2.98c1.323-2.07 2.14-3.284 2.14-3.905 0-.232-.308-.39-.876-.405v-.84h2.927v.84c-.583.015-.887.52-1.384 1.402-.203.364-.872 1.677-2.284 3.777v1.994c0 1.043.03 1.345 1.208 1.39v.838h-4.92v-.838" fill="#41422D"/>
		</g>
	</g>
</svg>