<?xml version="1.0" encoding="utf-8"?>
<!DOCTYPE svg PUBLIC "-//W3C//DTD SVG 1.1//EN" "http://www.w3.org/Graphics/SVG/1.1/DTD/svg11.dtd">
<svg width="384" height="278" viewBox="0 0 384 278"
	xmlns="http://www.w3.org/2000/svg"
	xmlns:xlink="http://www.w3.org/1999/xlink">
	<svg width="54" height="54" viewBox="0 0 54 54" id="alert" y="224">
		<path fill="#fff" d="M23.4 11.1h7.2v21.8h-7.2V11.1zM27 43.9c-2.1 0-3.9-1.7-3.9-3.9 0-2.1 1.7-3.9 3.9-3.9 2.1 0 3.9 1.7 3.9 3.9s-1.8 3.9-3.9 3.9zm0-38.7C39 5.2 48.8 15 48.8 27S39.1 48.8 27 48.8C15 48.8 5.2 39 5.2 27S15 5.2 27 5.2zM27 0C12.1 0 0 12.1 0 27s12.1 27 27 27 27-12.1 27-27S41.9 0 27 0z"/>
	</svg>
	<svg width="16" height="11" viewBox="0 0 16 11" id="arrow-double" x="364" y="130">
		<title>arrow-32-icon</title>
		<desc>Created with Sketch.</desc>
		<g fill="none" fill-rule="evenodd">
			<path d="M9.503 5.5L4.01 11H0l5.494-5.5L0 0h4.01l5.493 5.5zM10.506 0h-4.01l5.494 5.5L6.497 11h4.01L16 5.5 10.506 0z" fill="#31774F"/>
		</g>
	</svg>
	<svg width="42" height="42" viewBox="0 0 42 42" id="arrow-left" x="234" y="174">
		<title>Oval-1-+-arrow-27-icon</title>
		<desc>Created with Sketch.</desc>
		<g id="acPage-1" fill="none" fill-rule="evenodd">
			<g>
				<g>
					<g>
						<circle stroke="#979797" fill="#fff" cx="23.5" cy="19.5" r="15.5"/>
						<path d="M21 0c11.598 0 21 9.402 21 21s-9.402 21-21 21S0 32.598 0 21 9.402 0 21 0zm2.825 34.65l3.654-3.637L17.512 21l9.966-10.013-3.655-3.637L10.24 21l13.585 13.65z" fill="#000"/>
					</g>
				</g>
			</g>
		</g>
	</svg>
	<svg width="42" height="42" viewBox="0 0 42 42" id="arrow-right" x="192" y="174">
		<title>Oval-1-+-arrow-27-icon</title>
		<desc>Created with Sketch.</desc>
		<g id="adPage-1" fill="none" fill-rule="evenodd">
			<g>
				<g>
					<g>
						<circle stroke="#979797" fill="#fff" transform="matrix(-1 0 0 1 47 0)" cx="23.5" cy="19.5" r="15.5"/>
						<path d="M21 0C9.402 0 0 9.402 0 21s9.402 21 21 21 21-9.402 21-21S32.598 0 21 0zm-2.825 34.65l-3.654-3.637L24.488 21 14.52 10.987l3.655-3.637L31.76 21 18.175 34.65z" fill="#000"/>
					</g>
				</g>
			</g>
		</g>
	</svg>
	<svg width="192" height="112" viewBox="0 0 192 112" id="arrow-title">
		<title>arrow-title</title>
		<desc>Created with Sketch.</desc>
		<g id="aePage-1" fill="none" fill-rule="evenodd">
			<g>
				<g>
					<g>
						<path d="M0 7.607l96 51.758 96-51.758v26.406L96 85.27 0 34.014V7.607z" fill="#838383"/>
						<path d="M0 33.69l96 51.76 96-51.76V60.1l-96 51.257L0 60.098V33.69z" fill="#343434"/>
						<path d="M96 39.154l72.453-38.6H23.547L96 39.154z" fill="#343434"/>
					</g>
				</g>
			</g>
		</g>
	</svg>
	<svg width="192" height="112" viewBox="0 0 192 112" id="arrow-title-blue" x="192">
		<title>arrow-title-blue</title>
		<desc>Created with Sketch.</desc>
		<g id="afPage-1" fill="none" fill-rule="evenodd">
			<g>
				<g>
					<g>
						<path d="M0 7.607l96 51.758 96-51.758v26.406L96 85.27 0 34.014V7.607z" fill="#343434"/>
						<path d="M0 33.69l96 51.76 96-51.76V60.1l-96 51.257L0 60.098V33.69z" fill="#69A9C1"/>
						<path d="M96 39.154l72.453-38.6H23.547L96 39.154z" fill="#69A9C1"/>
					</g>
				</g>
			</g>
		</g>
	</svg>
	<svg width="192" height="112" viewBox="0 0 192 112" id="arrow-title-green" y="112">
		<title>arrow-title-green</title>
		<desc>Created with Sketch.</desc>
		<g id="agPage-1" fill="none" fill-rule="evenodd">
			<g>
				<g>
					<g>
						<path d="M0 7.607l96 51.758 96-51.758v26.406L96 85.27 0 34.014V7.607z" fill="#343434"/>
						<path d="M0 33.69l96 51.76 96-51.76V60.1l-96 51.257L0 60.098V33.69z" fill="#82AF26"/>
						<path d="M96 39.154l72.453-38.6H23.547L96 39.154z" fill="#82AF26"/>
					</g>
				</g>
			</g>
		</g>
	</svg>
	<svg width="12" height="12" viewBox="0 0 12 12" id="global-arrow" x="366" y="192">
		<title>Rectangle-5 + Rectangle-6</title>
		<desc>Created with Sketch.</desc>
		<g id="ahPage-1" fill="none" fill-rule="evenodd">
			<g transform="rotate(-90 6 7) translate(-1 1)">
				<g transform="translate(1)">
					<g>
						<g>
							<path d="M0 0l6 5.998L12 0v3.06L6 9 0 3.06V0z" fill="#82AF26"/>
							<path d="M0 3l6 5.998L12 3v3.06L6 12 0 6.06V3z" fill="#fff"/>
						</g>
					</g>
				</g>
			</g>
		</g>
	</svg>
	<svg width="25" height="25" viewBox="0 0 25 25" id="header-search" x="54" y="224">
		<title>magnifier-icon</title>
		<desc>Created with Sketch.</desc>
		<g fill="none" fill-rule="evenodd">
			<path d="M24.525 21.75l-6.4-6.618c.935-1.526 1.478-3.333 1.478-5.27 0-5.438-4.28-9.862-9.54-9.862C4.804 0 .526 4.424.526 9.863c0 5.438 4.28 9.862 9.54 9.862 1.78 0 3.446-.507 4.873-1.388L21.382 25l3.143-3.25zM4.08 9.863c0-3.41 2.685-6.186 5.984-6.186 3.3 0 5.983 2.775 5.983 6.186 0 3.41-2.684 6.186-5.983 6.186-3.3 0-5.983-2.776-5.983-6.187z" fill="#276444"/>
		</g>
	</svg>
	<svg width="10" height="10" viewBox="0 0 10 10" id="search-toggle" x="286" y="204">
		<title>magnifier-icon</title>
		<desc>Created with Sketch.</desc>
		<g fill="none" fill-rule="evenodd">
			<path d="M10 8.7L7.333 6.053c.39-.61.616-1.333.616-2.108C7.95 1.77 6.165 0 3.973 0 1.784 0 0 1.77 0 3.945S1.783 7.89 3.974 7.89c.742 0 1.437-.203 2.03-.555L8.69 10 10 8.7zM1.482 3.945C1.482 2.58 2.6 1.47 3.974 1.47c1.375 0 2.493 1.11 2.493 2.475 0 1.364-1.118 2.474-2.493 2.474-1.374 0-2.492-1.11-2.492-2.475z" fill="#fff"/>
		</g>
	</svg>
	<svg width="10" height="10" viewBox="0 0 10 10" id="search-toggle-close" x="276" y="204">
		<title>x-mark-3-icon</title>
		<desc>Created with Sketch.</desc>
		<g fill="none" fill-rule="evenodd">
			<path d="M5 0C2.24 0 0 2.24 0 5s2.24 5 5 5 5-2.24 5-5-2.24-5-5-5zm1.896 7.974l-1.872-1.87-1.872 1.87L2.147 6.97l1.87-1.873-1.87-1.872L3.153 2.22l1.87 1.87 1.872-1.87 1.007 1.005L6.03 5.097l1.872 1.87-1.006 1.007z" fill="#fff"/>
		</g>
	</svg>
	<svg width="11" height="13" viewBox="0 0 11 13" id="section-arrow" x="153" y="224">
		<title>arrow-30-icon</title>
		<desc>Created with Sketch.</desc>
		<g fill="none" fill-rule="evenodd">
			<path d="M4.64 0H0l6.36 6.5L0 13h4.64L11 6.5 4.64 0z" fill="#276444"/>
		</g>
	</svg>
	<svg width="19" height="19" viewBox="0 0 19 19" id="select-arrows" x="54" y="249">
		<title>Triangle 1 + Triangle 2</title>
		<desc>Created with Sketch.</desc>
		<g fill="none" fill-rule="evenodd">
			<g fill="#2B2E1B">
				<path d="M9.5 0L19 8H0z"/>
				<path d="M9.5 19l9.5-8H0z"/>
			</g>
		</g>
	</svg>
	<svg width="30" height="30" viewBox="0 0 30 30" id="share-fb" x="293" y="143">
		<title>facebook-circle-icon + facebook-circle-icon-path 2</title>
		<desc>Created with Sketch.</desc>
		<g fill="none" fill-rule="evenodd">
			<g>
				<path d="M14.994 0C6.73 0 .03 6.716.03 15c0 8.284 6.7 15 14.964 15s14.964-6.716 14.964-15c0-8.284-6.7-15-14.964-15z" fill="#3B5998"/>
				<path d="M19.423 8.825H17.33c-.737 0-.89.303-.89 1.068v1.85h2.983l-.287 3.248H16.44v9.702h-3.865v-9.66h-2.01v-3.29h2.01V9.155c0-2.43 1.297-3.7 4.172-3.7h2.676v3.37z" fill="#fff"/>
			</g>
		</g>
	</svg>
	<svg width="30" height="30" viewBox="0 0 30 30" id="share-tw" x="323" y="143">
		<title>twitter-4-icon + twitter-4-icon-path</title>
		<desc>Created with Sketch.</desc>
		<g fill="none" fill-rule="evenodd">
			<g>
				<path d="M15 0C6.716 0 0 6.716 0 15c0 8.284 6.716 15 15 15 8.284 0 15-6.716 15-15 0-8.284-6.716-15-15-15z" fill="#55ACEE"/>
				<path d="M22.544 12.415c.22 4.894-3.43 10.35-9.89 10.35-1.964 0-3.792-.577-5.332-1.564 1.846.22 3.688-.293 5.15-1.44-1.522-.028-2.807-1.033-3.25-2.416.546.105 1.082.074 1.572-.06-1.673-.335-2.828-1.842-2.79-3.454.468.26 1.005.417 1.575.435-1.55-1.036-1.99-3.08-1.077-4.645 1.716 2.105 4.28 3.49 7.17 3.635-.507-2.176 1.144-4.272 3.39-4.272 1 0 1.904.423 2.54 1.1.79-.157 1.536-.447 2.208-.845-.26.812-.81 1.494-1.53 1.924.705-.084 1.376-.27 2-.547-.467.697-1.057 1.31-1.736 1.8z" fill="#fff"/>
			</g>
		</g>
	</svg>
	<svg width="71" height="31" viewBox="0 0 71 31" id="small-arrow-blue" x="192" y="112">
		<title>Rectangle 1 + Triangle 3</title>
		<desc>Created with Sketch.</desc>
		<g fill="none" fill-rule="evenodd">
			<g fill="#69A9C1">
				<path d="M0 3.263l35.5 18.712L71 3.263v8.974L35.5 30.95 0 12.236V3.263z"/>
				<path d="M35.913 13.052L61.92 0H9.906z"/>
			</g>
		</g>
	</svg>
	<svg width="71" height="31" viewBox="0 0 71 31" id="small-arrow-green" x="192" y="143">
		<title>Rectangle 1 + Triangle 3</title>
		<desc>Created with Sketch.</desc>
		<g fill="none" fill-rule="evenodd">
			<g fill="#82AF26">
				<path d="M0 3.263l35.5 18.712L71 3.263v8.974L35.5 30.95 0 12.236V3.263z"/>
				<path d="M35.913 13.052L61.92 0H9.906z"/>
			</g>
		</g>
	</svg>
	<svg width="71" height="31" viewBox="0 0 71 31" id="small-arrow-yellow" x="263" y="112">
		<title>Rectangle 1 + Triangle 3</title>
		<desc>Created with Sketch.</desc>
		<g fill="none" fill-rule="evenodd">
			<g fill="#F4C300">
				<path d="M0 3.263l35.5 18.712L71 3.263v8.974L35.5 30.95 0 12.236V3.263z"/>
				<path d="M35.913 13.052L61.92 0H9.906z"/>
			</g>
		</g>
	</svg>
	<svg width="30" height="30" viewBox="0 0 30 30" id="social-fb" x="306" y="174">
		<title>facebook-icon</title>
		<desc>Created with Sketch.</desc>
		<g id="asPage-1" fill="none" fill-rule="evenodd">
			<g fill="#fff">
				<g>
					<path d="M11.403 9.808H8v5.128h3.403V30h6.545V14.872h4.566L23 9.808h-5.052V6.923c0-1.194.26-1.667 1.51-1.667H23V0h-4.53c-4.87 0-7.067 1.98-7.067 5.77v4.038z"/>
				</g>
			</g>
		</g>
	</svg>
	<svg width="19" height="18" viewBox="0 0 19 18" id="social-fb-alt" x="364" y="112">
		<title>facebook-circle-icon</title>
		<desc>Created with Sketch.</desc>
		<g fill="none" fill-rule="evenodd">
			<path d="M9.417 0c-4.97 0-9 4.03-9 9s4.03 9 9 9 9-4.03 9-9-4.03-9-9-9zm2.664 5.295h-1.257c-.444 0-.537.182-.537.64v1.11h1.795l-.172 1.95h-1.622v5.82H7.962V9.02h-1.21V7.045h1.21V5.492c0-1.458.78-2.22 2.51-2.22h1.61v2.023z" fill="#276444"/>
		</g>
	</svg>
	<svg width="30" height="30" viewBox="0 0 30 30" id="social-gp" x="353" y="143">
		<title>social-gp</title>
		<desc>Created with Sketch.</desc>
		<g id="auPage-1" fill="none" fill-rule="evenodd">
			<g fill="#fff">
				<g>
					<g>
						<path d="M30 6.488h-3.977v4.055h-1.99V6.488h-3.976V4.46h3.977V.407h1.99V4.46H30V6.49zM18.756 23.26c0 3.04-2.722 6.74-9.57 6.74C4.176 30 0 27.797 0 24.093c0-2.86 1.775-6.57 10.072-6.57-1.232-1.025-1.535-2.457-.78-4.007-4.86 0-7.347-2.912-7.347-6.61C1.945 3.29 4.585 0 9.965 0h8.622L16.66 2.062h-2.263c1.597.932 2.446 2.853 2.446 4.97 0 1.943-1.05 3.517-2.547 4.698-2.658 2.095-1.978 3.265.807 5.336 2.746 2.097 3.653 3.716 3.653 6.194zM13.38 7.164c-.402-3.11-2.39-5.663-4.712-5.734-2.324-.07-3.882 2.31-3.48 5.422.4 3.11 2.608 5.284 4.932 5.355 2.323.07 3.66-1.93 3.26-5.043zm2.394 16.408c0-2.56-2.29-4.998-6.13-4.998-3.462-.038-6.396 2.23-6.396 4.86 0 2.685 2.5 4.92 5.962 4.92 4.426 0 6.564-2.098 6.564-4.782z"/>
					</g>
				</g>
			</g>
		</g>
	</svg>
	<svg width="19" height="18" viewBox="0 0 19 18" id="social-gp-alt" x="98" y="224">
		<title>google-plus-circle-icon</title>
		<desc>Created with Sketch.</desc>
		<g fill="none" fill-rule="evenodd">
			<path d="M10.158 12.262c0 .884-.72 1.575-2.206 1.575-1.163 0-2.003-.736-2.003-1.62 0-.867.985-1.615 2.148-1.602 1.29 0 2.06.804 2.06 1.647zM18.418 9c0 4.97-4.03 9-9 9-4.972 0-9-4.03-9-9s4.028-9 9-9c4.97 0 9 4.03 9 9zm-7.258 3.16c0-.818-.305-1.35-1.228-2.042-.936-.683-1.164-1.068-.27-1.76.502-.388.855-.907.855-1.547 0-.697-.285-1.33-.822-1.637h.76l.648-.68H8.206c-1.808 0-2.695 1.084-2.695 2.277 0 1.218.837 2.178 2.47 2.178-.254.51-.152.983.262 1.32-2.788 0-3.385 1.223-3.385 2.165 0 1.22 1.404 1.947 3.087 1.947 2.3 0 3.216-1.22 3.216-2.22zm3.778-6.196H13.6V4.627h-.667v1.337h-1.336v.668h1.336v1.336h.668V6.632h1.338v-.668zm-5.585.89C9.218 5.83 8.55 4.99 7.77 4.965c-.78-.022-1.304.762-1.17 1.788.135 1.025.877 1.74 1.658 1.765.78.023 1.23-.637 1.095-1.662z" fill="#276444"/>
		</g>
	</svg>
	<svg width="30" height="30" viewBox="0 0 30 30" id="social-ig" x="263" y="143">
		<title>social-ig</title>
		<desc>Created with Sketch.</desc>
		<g id="awPage-1" fill="none" fill-rule="evenodd">
			<g fill="#fff">
				<g>
					<path d="M26.54 12.692h-2.612c.19.74.302 1.51.302 2.308 0 5.1-4.132 9.23-9.23 9.23-5.098 0-9.23-4.13-9.23-9.23 0-.798.112-1.57.303-2.308H3.46v12.693c0 .637.518 1.153 1.156 1.153h20.768c.64 0 1.155-.516 1.155-1.153V12.692zm0-8.076c0-.638-.517-1.154-1.156-1.154h-3.46c-.638 0-1.154.516-1.154 1.154v3.462c0 .636.516 1.153 1.154 1.153h3.46c.64 0 1.155-.516 1.155-1.152V4.616zM15 9.23c-3.187 0-5.77 2.584-5.77 5.77 0 3.186 2.583 5.77 5.77 5.77 3.186 0 5.77-2.584 5.77-5.77 0-3.186-2.584-5.77-5.77-5.77zM26.54 30H3.46C1.55 30 0 28.45 0 26.54V3.462C0 1.55 1.55.002 3.46.002h23.08C28.45 0 30 1.55 30 3.46v23.076C30 28.45 28.45 30 26.54 30z"/>
				</g>
			</g>
		</g>
	</svg>
	<svg width="18" height="18" viewBox="0 0 18 18" id="social-ig-alt" x="117" y="224">
		<title>instagram-9-icon</title>
		<desc>Created with Sketch.</desc>
		<g fill="none" fill-rule="evenodd">
			<path d="M7.102 9c0-1.073.87-1.942 1.942-1.942s1.942.87 1.942 1.942-.87 1.942-1.942 1.942c-1.073 0-1.942-.87-1.942-1.942zm5.05 0c0 1.716-1.392 3.107-3.108 3.107-1.716 0-3.107-1.39-3.107-3.107 0-.27.038-.53.102-.777h-.88v4.272c0 .215.174.388.388.388h6.99c.216 0 .39-.173.39-.388V8.223h-.88c.065.248.103.508.103.777zm.387-3.884h-1.166c-.214 0-.388.174-.388.388V6.67c0 .214.174.388.388.388h1.165c.214 0 .388-.174.388-.388V5.504c0-.214-.174-.388-.39-.388zM18 9c0 4.97-4.03 9-9 9s-9-4.03-9-9 4.03-9 9-9 9 4.03 9 9zm-3.907-3.884c0-.643-.522-1.165-1.165-1.165H5.16c-.644 0-1.165.523-1.165 1.166v7.767c0 .644.52 1.166 1.165 1.166h7.768c.643 0 1.165-.523 1.165-1.167V5.116z" fill="#276444"/>
		</g>
	</svg>
	<svg width="30" height="30" viewBox="0 0 30 30" id="social-li" x="336" y="174">
		<title>social-li</title>
		<desc>Created with Sketch.</desc>
		<g id="ayPage-1" fill="none" fill-rule="evenodd">
			<g fill="#fff">
				<g>
					<path d="M7.325 3.69c0 2.04-1.64 3.69-3.662 3.69C1.64 7.38 0 5.73 0 3.69 0 1.652 1.64 0 3.663 0c2.022 0 3.662 1.652 3.662 3.69zM6.79 10H.594v20H6.79V10zm9.9 0h-5.94v20h5.94V19.5c0-2.81 1.295-4.485 3.774-4.485 2.278 0 3.372 1.607 3.372 4.486V30H30V17.336c0-5.357-3.037-7.946-7.28-7.946-4.244 0-6.03 3.303-6.03 3.303V10z"/>
				</g>
			</g>
		</g>
	</svg>
	<svg width="19" height="18" viewBox="0 0 19 18" id="social-li-alt" x="79" y="224">
		<title>linkedin-circle-icon</title>
		<desc>Created with Sketch.</desc>
		<g fill="none" fill-rule="evenodd">
			<path d="M9.417 0c-4.97 0-9 4.03-9 9s4.03 9 9 9 9-4.03 9-9-4.03-9-9-9zm-2.4 13.35H5.04V6.968h1.976v6.384zm-1-7.22c-.644 0-1.167-.526-1.167-1.177 0-.65.523-1.178 1.168-1.178.646 0 1.17.527 1.17 1.178 0 .65-.524 1.178-1.17 1.178zm8.404 7.22h-1.965V10c0-.92-.35-1.432-1.076-1.432-.792 0-1.206.534-1.206 1.432v3.35H8.28V6.968h1.894v.86s.57-1.055 1.924-1.055S14.42 7.6 14.42 9.31v4.04z" fill="#276444"/>
		</g>
	</svg>
	<svg width="30" height="30" viewBox="0 0 30 30" id="social-tw" x="334" y="112">
		<title>Page-1</title>
		<desc>Created with Sketch.</desc>
		<g id="baPage-1" fill="none" fill-rule="evenodd">
			<g fill="#fff">
				<g transform="translate(0 3)">
					<path d="M30 2.96c-1.104.5-2.29.84-3.535.993 1.27-.78 2.247-2.018 2.706-3.492-1.188.725-2.505 1.25-3.907 1.533C24.14.766 22.54 0 20.77 0c-3.973 0-6.893 3.802-5.995 7.75C9.66 7.485 5.125 4.973 2.09 1.154.475 3.99 1.25 7.703 3.992 9.58c-1.01-.03-1.958-.315-2.787-.788-.067 2.924 1.976 5.658 4.936 6.268-.866.242-1.815.297-2.78.108.784 2.507 3.057 4.332 5.75 4.383C6.525 21.63 3.265 22.56 0 22.165 2.724 23.954 5.96 25 9.435 25c11.427 0 17.883-9.897 17.494-18.774 1.2-.89 2.245-2 3.07-3.267z"/>
				</g>
			</g>
		</g>
	</svg>
	<svg width="18" height="18" viewBox="0 0 18 18" id="social-tw-alt" x="366" y="174">
		<title>twitter-4-icon</title>
		<desc>Created with Sketch.</desc>
		<g fill="none" fill-rule="evenodd">
			<path d="M9 0C4.03 0 0 4.03 0 9s4.03 9 9 9 9-4.03 9-9-4.03-9-9-9zm4.526 7.45c.132 2.935-2.057 6.21-5.933 6.21-1.18 0-2.276-.347-3.2-.94 1.108.13 2.213-.176 3.09-.864-.913-.017-1.684-.62-1.95-1.45.328.063.65.045.943-.035-1.003-.2-1.697-1.105-1.674-2.072.28.156.603.25.946.26-.93-.62-1.193-1.848-.646-2.786 1.03 1.263 2.567 2.094 4.302 2.18-.304-1.305.686-2.562 2.034-2.562.6 0 1.142.253 1.523.66.477-.095.923-.268 1.327-.507-.156.487-.487.896-.918 1.154.42-.05.823-.162 1.198-.328-.28.417-.634.785-1.042 1.08z" fill="#276444"/>
		</g>
	</svg>
	<svg width="30" height="30" viewBox="0 0 30 30" id="social-yt" x="276" y="174">
		<title>social-yt</title>
		<desc>Created with Sketch.</desc>
		<g id="bcPage-1" fill="none" fill-rule="evenodd">
			<g transform="translate(2)" fill="#fff">
				<g>
					<path d="M5.49 0H7.13l1.12 4.628L9.288 0h1.652L9.05 6.88v4.697H7.423V6.88L5.49 0zm5.377 9.447c0 1.505.714 2.288 2.114 2.288 1.16 0 2.075-.854 2.075-2.288V5.26c0-1.336-.905-2.293-2.074-2.293-1.27 0-2.113.924-2.113 2.294v4.187zm1.485-4.045c0-.468.195-.815.6-.815.443 0 .632.337.632.815v3.972c0 .465-.215.81-.603.81-.398 0-.628-.36-.628-.81V5.402zm6.604-2.365V9.52c-.176.242-.567.64-.85.64-.307 0-.383-.233-.383-.577V3.037H16.28v7.138c0 .844.234 1.525 1.008 1.525.437 0 1.042-.25 1.668-1.066v.943H20.4v-8.54h-1.444zm-2.123 17.507c.098.142.147.35.147.625v4.198c0 .26-.04.446-.12.56-.15.22-.478.21-.702.084-.105-.058-.213-.153-.325-.286v-5.068c.093-.112.187-.194.283-.248.24-.134.55-.108.717.134zm4.626-.184c-.51 0-.615.394-.615.953v.823h1.214v-.823c0-.55-.107-.953-.6-.953zm4.19 6c0 2.01-1.48 3.64-3.31 3.64H5.335c-1.828 0-3.31-1.63-3.31-3.64v-9.2c0-2.01 1.482-3.64 3.31-3.64H22.34c1.83 0 3.31 1.63 3.31 3.64v9.2zM7.6 17.85h1.6v-1.6H4.45v1.6h1.602v9.424H7.6V17.85zm5.505 1.29H11.73v6.175c-.167.23-.54.61-.808.61-.294 0-.366-.222-.366-.55v-6.234H9.182v6.8c0 1.65 1.017 1.66 1.758 1.193.274-.173.537-.426.79-.756v.897h1.375V19.14zm5.29 1.937c0-1.103-.334-2.04-1.34-2.04-.49 0-.912.346-1.222.76V16.25h-1.388v11.024h1.388v-.625c.383.525.802.727 1.305.727.914 0 1.256-.78 1.256-1.788v-4.513zm5.08.25c0-1.47-.64-2.39-1.957-2.39-1.24 0-2.087.98-2.087 2.39v3.65c0 1.466.672 2.518 1.984 2.518 1.448 0 2.06-.95 2.06-2.517v-.61H22.06v.565c0 .708-.035 1.138-.615 1.138-.553 0-.6-.527-.6-1.137v-1.535h2.63v-2.07z"/>
				</g>
			</g>
		</g>
	</svg>
	<svg width="18" height="18" viewBox="0 0 18 18" id="social-yt-alt" x="135" y="224">
		<title>youtube-4-icon</title>
		<desc>Created with Sketch.</desc>
		<g fill="none" fill-rule="evenodd">
			<path d="M10.382 10.352c-.204 0-.38.13-.508.287V9.296h-.578v4.168h.578v-.236c.16.197.333.274.543.274.38 0 .522-.296.522-.676v-1.706c0-.417-.14-.77-.558-.77zm-.03 2.392c0 .098-.018.17-.05.212-.064.083-.2.08-.293.032-.045-.022-.09-.058-.136-.108v-1.916c.038-.042.078-.074.117-.094.102-.05.23-.04.3.05.04.054.06.133.06.237v1.587zM8.425 6.7V5.196c0-.177.08-.308.25-.308.184 0 .262.126.262.307V6.7c0 .174-.09.304-.25.304-.166 0-.262-.135-.262-.305zm-.26 3.69h.573v3.075h-.573v-.34c-.105.126-.215.22-.33.286-.307.178-.73.174-.73-.45v-2.57h.572v2.357c0 .124.03.207.15.207.113 0 .268-.142.337-.23V10.39zm-1.05-.488h-.667v3.563h-.645V9.902H5.14v-.605h1.975v.605zm5.123.41c-.517 0-.87.37-.87.905v1.38c0 .554.28.95.825.95.603 0 .857-.357.857-.95v-.23h-.588v.213c0 .268-.014.43-.256.43-.23 0-.25-.2-.25-.43V12h1.094v-.783c0-.556-.265-.904-.813-.904zm.224 1.21h-.505v-.31c0-.212.042-.36.254-.36.206 0 .25.152.25.36v.31zM9 0C4.03 0 0 4.03 0 9s4.03 9 9 9 9-4.03 9-9-4.03-9-9-9zm1.06 4.303h.6v2.475c0 .13.03.217.16.217.117 0 .28-.15.353-.24V4.302h.6V7.53h-.6v-.355c-.26.31-.512.403-.694.403-.323 0-.42-.258-.42-.577V4.304zm-1.373-.026c.487 0 .863.362.863.867v1.582c0 .542-.38.865-.863.865-.582 0-.88-.295-.88-.864V5.144c0-.518.352-.867.88-.867zM6.253 3.155l.466 1.75.432-1.75h.687l-.788 2.6v1.776h-.676V5.757l-.804-2.6h.68zm7.704 9.964c0 .76-.616 1.375-1.376 1.375H5.507c-.76 0-1.376-.616-1.376-1.376V9.64c0-.76.616-1.376 1.376-1.376h7.075c.76 0 1.377.616 1.377 1.376v3.477z" fill="#276444"/>
		</g>
	</svg>
</svg>